<svg width="105" height="27" viewBox="0 0 105 27" fill="none" xmlns="http://www.w3.org/2000/svg">
<path fill-rule="evenodd" clip-rule="evenodd" d="M2.92056 24.0637V11.3396H4.86696V24.0637C4.86696 24.3233 4.96949 24.5722 5.152 24.7558C5.33452 24.9393 5.58205 25.0425 5.84016 25.0425H23.3578C23.6159 25.0425 23.8634 24.9393 24.046 24.7558C24.2285 24.5722 24.331 24.3233 24.331 24.0637V11.3396H26.2774V24.0637C26.2774 24.8424 25.9698 25.5893 25.4223 26.14C24.8747 26.6906 24.1321 27 23.3578 27H5.84016C5.06583 27 4.32322 26.6906 3.77569 26.14C3.22816 25.5893 2.92056 24.8424 2.92056 24.0637ZM24.331 2.53069V9.38209L20.4382 5.467V2.53069C20.4382 2.2711 20.5407 2.02215 20.7232 1.83859C20.9057 1.65503 21.1533 1.55191 21.4114 1.55191H23.3578C23.6159 1.55191 23.8634 1.65503 24.046 1.83859C24.2285 2.02215 24.331 2.2711 24.331 2.53069Z" fill="black"/>
<path fill-rule="evenodd" clip-rule="evenodd" d="M13.2232 0.573143C13.5882 0.20616 14.0831 0 14.5993 0C15.1154 0 15.6104 0.20616 15.9754 0.573143L28.9131 13.583C29.0959 13.7668 29.1985 14.016 29.1985 14.276C29.1985 14.5359 29.0959 14.7851 28.9131 14.9689C28.7304 15.1527 28.4825 15.256 28.2241 15.256C27.9657 15.256 27.7178 15.1527 27.5351 14.9689L14.5993 1.95713L1.66346 14.9689C1.48072 15.1527 1.23287 15.256 0.974431 15.256C0.715996 15.256 0.468146 15.1527 0.285404 14.9689C0.102663 14.7851 0 14.5359 0 14.276C0 14.016 0.102663 13.7668 0.285404 13.583L13.2232 0.573143Z" fill="black"/>
<path d="M37.119 4.81015C37.3613 4.81015 37.521 4.81569 37.5981 4.82677V5.724H37.2016C36.2655 5.724 35.533 5.98985 35.0044 6.52154C34.4867 7.05323 34.2279 7.77877 34.2279 8.69815V13.5H33.2862V4.92646H34.1783V6.72092C34.7511 5.44708 35.7313 4.81015 37.119 4.81015Z" fill="black"/>
<path d="M45.5407 9.19662V9.52892H38.8497C38.8938 10.5923 39.1691 11.412 39.6758 11.988C40.1934 12.5529 40.8983 12.8354 41.7904 12.8354C42.4733 12.8354 43.0405 12.6526 43.4921 12.2871C43.9436 11.9105 44.241 11.4009 44.3842 10.7585H45.3589C45.1607 11.6668 44.7477 12.3868 44.1199 12.9185C43.4921 13.4391 42.7046 13.6994 41.7574 13.6994C40.5679 13.6994 39.6262 13.2895 38.9323 12.4698C38.2385 11.6502 37.8915 10.5646 37.8915 9.21323C37.8915 7.87292 38.2385 6.78738 38.9323 5.95662C39.6152 5.13692 40.5459 4.72708 41.7244 4.72708C42.9249 4.72708 43.861 5.148 44.5329 5.98985C45.2047 6.83169 45.5407 7.90062 45.5407 9.19662ZM41.7244 5.59108C40.9093 5.59108 40.2485 5.86246 39.7418 6.40523C39.2352 6.948 38.9433 7.70677 38.8662 8.68154H44.5329C44.4778 7.74 44.2025 6.99231 43.7068 6.43846C43.2222 5.87354 42.5614 5.59108 41.7244 5.59108Z" fill="black"/>
<path d="M54.0357 12.7357H54.4818V13.5C54.2945 13.5332 54.0908 13.5498 53.8705 13.5498C53.4079 13.5498 53.072 13.4391 52.8627 13.2175C52.6535 12.9849 52.5488 12.6305 52.5488 12.1542V12.0378C51.9761 13.1455 50.9463 13.6994 49.4595 13.6994C48.5453 13.6994 47.8349 13.4834 47.3283 13.0514C46.8326 12.6083 46.5848 12.0046 46.5848 11.2403C46.5848 9.756 47.5981 8.892 49.6247 8.64831L50.9463 8.49877C51.5301 8.42123 51.9376 8.27723 52.1689 8.06677C52.4002 7.85631 52.5158 7.53508 52.5158 7.10308C52.5158 6.06185 51.7834 5.54123 50.3185 5.54123C49.4705 5.54123 48.8537 5.69077 48.4682 5.98985C48.0937 6.28892 47.89 6.79292 47.8569 7.50185H46.9483C47.0034 5.652 48.1268 4.72708 50.3185 4.72708C51.3538 4.72708 52.1303 4.93754 52.648 5.35846C53.1656 5.76831 53.4244 6.34985 53.4244 7.10308V12.1209C53.4244 12.5308 53.6282 12.7357 54.0357 12.7357ZM49.509 12.9018C50.3571 12.9018 51.073 12.6582 51.6567 12.1708C52.2294 11.6945 52.5158 10.98 52.5158 10.0274V8.73138C52.2405 9.00831 51.7669 9.18554 51.095 9.26308L49.7733 9.42923C48.9914 9.52892 48.4241 9.72277 48.0717 10.0108C47.7303 10.2877 47.5596 10.692 47.5596 11.2237C47.5596 11.7443 47.7248 12.1542 48.0552 12.4532C48.3856 12.7523 48.8702 12.9018 49.509 12.9018Z" fill="black"/>
<path d="M56.46 13.5H55.5183V1.66985H56.46V13.5Z" fill="black"/>
<path d="M69.1925 9.19662V9.52892H62.5016C62.5457 10.5923 62.821 11.412 63.3276 11.988C63.8453 12.5529 64.5502 12.8354 65.4423 12.8354C66.1252 12.8354 66.6924 12.6526 67.144 12.2871C67.5955 11.9105 67.8929 11.4009 68.0361 10.7585H69.0108C68.8126 11.6668 68.3995 12.3868 67.7718 12.9185C67.144 13.4391 66.3565 13.6994 65.4093 13.6994C64.2198 13.6994 63.2781 13.2895 62.5842 12.4698C61.8903 11.6502 61.5434 10.5646 61.5434 9.21323C61.5434 7.87292 61.8903 6.78738 62.5842 5.95662C63.2671 5.13692 64.1977 4.72708 65.3762 4.72708C66.5767 4.72708 67.5129 5.148 68.1848 5.98985C68.8566 6.83169 69.1925 7.90062 69.1925 9.19662ZM65.3762 5.59108C64.5612 5.59108 63.9004 5.86246 63.3937 6.40523C62.8871 6.948 62.5952 7.70677 62.5181 8.68154H68.1848C68.1297 7.74 67.8544 6.99231 67.3587 6.43846C66.8741 5.87354 66.2133 5.59108 65.3762 5.59108Z" fill="black"/>
<path d="M73.7226 13.6994C72.6322 13.6994 71.7842 13.4557 71.1784 12.9683C70.5726 12.4809 70.2422 11.772 70.1871 10.8415H71.1454C71.2555 12.204 72.1146 12.8852 73.7226 12.8852C75.3086 12.8852 76.1016 12.3425 76.1016 11.2569C76.1016 10.8138 75.9419 10.4705 75.6225 10.2268C75.3031 9.98308 74.7634 9.78923 74.0035 9.64523L73.1279 9.49569C72.2137 9.32954 71.5363 9.05262 71.0958 8.66492C70.6662 8.26615 70.4515 7.73446 70.4515 7.06985C70.4515 6.33877 70.7213 5.76831 71.261 5.35846C71.8007 4.93754 72.5496 4.72708 73.5078 4.72708C75.6776 4.72708 76.801 5.61323 76.8781 7.38554H75.9199C75.8758 6.75415 75.661 6.28892 75.2756 5.98985C74.8901 5.69077 74.3008 5.54123 73.5078 5.54123C72.836 5.54123 72.3128 5.67415 71.9384 5.94C71.5749 6.20585 71.3932 6.57692 71.3932 7.05323C71.3932 7.49631 71.5474 7.83969 71.8557 8.08338C72.1751 8.32708 72.6928 8.51538 73.4087 8.64831L74.2678 8.79785C75.248 8.97508 75.9529 9.25754 76.3825 9.64523C76.823 10.0218 77.0433 10.5425 77.0433 11.2071C77.0433 12.0157 76.7459 12.636 76.1512 13.068C75.5674 13.4889 74.7579 13.6994 73.7226 13.6994Z" fill="black"/>
<path d="M81.8195 4.92646V5.75723H79.837V11.7055C79.837 12.3812 80.239 12.7191 81.043 12.7191C81.4615 12.7191 81.7204 12.7135 81.8195 12.7025V13.5C81.5001 13.5332 81.2027 13.5498 80.9274 13.5498C79.5837 13.5498 78.9118 12.9628 78.9118 11.7886V5.75723H77.458V4.92646H78.9118V2.50061H79.837V4.92646H81.8195Z" fill="black"/>
<path d="M90.0137 12.7357H90.4597V13.5C90.2725 13.5332 90.0688 13.5498 89.8485 13.5498C89.3859 13.5498 89.05 13.4391 88.8407 13.2175C88.6314 12.9849 88.5268 12.6305 88.5268 12.1542V12.0378C87.9541 13.1455 86.9243 13.6994 85.4374 13.6994C84.5233 13.6994 83.8129 13.4834 83.3062 13.0514C82.8106 12.6083 82.5628 12.0046 82.5628 11.2403C82.5628 9.756 83.5761 8.892 85.6026 8.64831L86.9243 8.49877C87.508 8.42123 87.9155 8.27723 88.1468 8.06677C88.3781 7.85631 88.4938 7.53508 88.4938 7.10308C88.4938 6.06185 87.7613 5.54123 86.2965 5.54123C85.4484 5.54123 84.8317 5.69077 84.4462 5.98985C84.0717 6.28892 83.8679 6.79292 83.8349 7.50185H82.9262C82.9813 5.652 84.1047 4.72708 86.2965 4.72708C87.3318 4.72708 88.1083 4.93754 88.6259 5.35846C89.1436 5.76831 89.4024 6.34985 89.4024 7.10308V12.1209C89.4024 12.5308 89.6062 12.7357 90.0137 12.7357ZM85.487 12.9018C86.335 12.9018 87.0509 12.6582 87.6347 12.1708C88.2074 11.6945 88.4938 10.98 88.4938 10.0274V8.73138C88.2184 9.00831 87.7448 9.18554 87.073 9.26308L85.7513 9.42923C84.9693 9.52892 84.4021 9.72277 84.0497 10.0108C83.7082 10.2877 83.5375 10.692 83.5375 11.2237C83.5375 11.7443 83.7027 12.1542 84.0331 12.4532C84.3636 12.7523 84.8482 12.9018 85.487 12.9018Z" fill="black"/>
<path d="M94.807 4.92646V5.75723H92.8245V11.7055C92.8245 12.3812 93.2266 12.7191 94.0306 12.7191C94.4491 12.7191 94.7079 12.7135 94.807 12.7025V13.5C94.4876 13.5332 94.1903 13.5498 93.9149 13.5498C92.5712 13.5498 91.8994 12.9628 91.8994 11.7886V5.75723H90.4455V4.92646H91.8994V2.50061H92.8245V4.92646H94.807Z" fill="black"/>
<path d="M103.234 9.19662V9.52892H96.5435C96.5876 10.5923 96.8629 11.412 97.3696 11.988C97.8872 12.5529 98.5921 12.8354 99.4842 12.8354C100.167 12.8354 100.734 12.6526 101.186 12.2871C101.637 11.9105 101.935 11.4009 102.078 10.7585H103.053C102.854 11.6668 102.441 12.3868 101.814 12.9185C101.186 13.4391 100.398 13.6994 99.4512 13.6994C98.2617 13.6994 97.32 13.2895 96.6261 12.4698C95.9323 11.6502 95.5853 10.5646 95.5853 9.21323C95.5853 7.87292 95.9323 6.78738 96.6261 5.95662C97.309 5.13692 98.2397 4.72708 99.4182 4.72708C100.619 4.72708 101.555 5.148 102.227 5.98985C102.899 6.83169 103.234 7.90062 103.234 9.19662ZM99.4182 5.59108C98.6031 5.59108 97.9423 5.86246 97.4357 6.40523C96.929 6.948 96.6372 7.70677 96.5601 8.68154H102.227C102.172 7.74 101.896 6.99231 101.401 6.43846C100.916 5.87354 100.255 5.59108 99.4182 5.59108Z" fill="black"/>
<path d="M40.6049 21.3009L42.9344 15.1698H45.396V27H43.6943V23.2948C43.6943 20.6252 43.7164 18.6258 43.7604 17.2966C43.5291 18.0055 43.1987 18.9194 42.7692 20.0382L40.1093 27H38.6224L35.9295 20.0382C35.5661 19.0634 35.2412 18.1662 34.9548 17.3465C34.9989 18.6646 35.0209 20.6474 35.0209 23.2948V27H33.3193V15.1698H35.7643L38.1764 21.4671C38.672 22.7742 39.074 23.8874 39.3824 24.8068C39.7459 23.7102 40.1534 22.5415 40.6049 21.3009Z" fill="black"/>
<path d="M57.6192 27H55.7523L54.5959 23.9262H49.3092L48.1693 27H46.3355L50.9283 15.1698H52.9603L57.6192 27ZM50.1187 21.7329L49.8709 22.3809H54.0176L53.7698 21.7329C53.1861 20.2708 52.5748 18.6535 51.936 16.8812C51.1761 18.9194 50.5703 20.5366 50.1187 21.7329Z" fill="black"/>
<path d="M67.4566 23.7102L67.5722 25.5545C67.6273 26.1637 67.7594 26.6455 67.9687 27H66.1514C65.9311 26.6788 65.8155 26.1748 65.8045 25.488L65.7549 24.2252C65.7219 23.4609 65.5512 22.9237 65.2428 22.6135C64.9344 22.2923 64.4388 22.1317 63.7559 22.1317H60.3361V27H58.5684V15.1698H63.7063C64.9619 15.1698 65.9477 15.4634 66.6636 16.0505C67.3905 16.6265 67.7539 17.424 67.7539 18.4431C67.7539 19.1631 67.5777 19.7723 67.2253 20.2708C66.8838 20.7582 66.3992 21.1015 65.7714 21.3009C66.3442 21.4671 66.7627 21.7495 67.027 22.1483C67.2914 22.536 67.4345 23.0566 67.4566 23.7102ZM60.3361 20.6529H63.7394C64.4222 20.6529 64.9564 20.4757 65.3419 20.1212C65.7384 19.7668 65.9366 19.2628 65.9366 18.6092C65.9366 17.9778 65.7329 17.5015 65.3254 17.1803C64.9289 16.8591 64.3562 16.6985 63.6072 16.6985H60.3361V20.6529Z" fill="black"/>
<path d="M67.9895 15.1698H77.5881V16.7649H73.6892V27H71.8884V16.7649H67.9895V15.1698Z" fill="black"/>
<path d="M87.1764 15.1698V16.7649H80.5515V20.1046H86.5486V21.6665H80.5515V25.4049H87.1268V27H78.7838V15.1698H87.1764Z" fill="black"/>
<path d="M90.3769 15.1698V25.4049H96.1427V27H88.6091V15.1698H90.3769Z" fill="black"/>
<path d="M99.2342 15.1698V25.4049H105V27H97.4665V15.1698H99.2342Z" fill="black"/>
</svg>
