<svg width="154" height="34" viewBox="0 0 154 34" fill="none" xmlns="http://www.w3.org/2000/svg">
<path d="M3.98964 34C1.78622 34 1.22987e-06 32.2091 1.13355e-06 30L0 4.00001C-9.63143e-08 1.79087 1.78622 6.49591e-06 3.98964 6.39935e-06L150.01 0C152.214 -9.65645e-08 154 1.79086 154 4V30C154 32.2091 152.214 34 150.01 34L3.98964 34Z" fill="white" fill-opacity="0.17"/>
<path d="M12.8067 10.96H18.851C20.3937 10.96 21.5906 11.3667 22.4417 12.18C23.2928 12.98 23.7184 14.0733 23.7184 15.46C23.7184 16.8333 23.2928 17.9267 22.4417 18.74C21.5906 19.54 20.3937 19.94 18.851 19.94H14.9412V25.2H12.8067V10.96ZM14.9412 18.06H18.8111C19.7022 18.06 20.3804 17.84 20.8459 17.4C21.3113 16.9467 21.544 16.3 21.544 15.46C21.544 14.62 21.3113 13.9733 20.8459 13.52C20.3804 13.0667 19.7022 12.84 18.8111 12.84H14.9412V18.06Z" fill="white"/>
<path d="M33.0445 23.96C32.1003 24.9467 30.8701 25.44 29.3541 25.44C27.838 25.44 26.6079 24.9467 25.6637 23.96C24.7194 22.9733 24.2473 21.6667 24.2473 20.04C24.2473 18.4 24.7194 17.0867 25.6637 16.1C26.5946 15.1267 27.8247 14.64 29.3541 14.64C30.8834 14.64 32.1136 15.1267 33.0445 16.1C33.9754 17.0733 34.4409 18.3867 34.4409 20.04C34.4409 21.68 33.9754 22.9867 33.0445 23.96ZM27.1398 22.74C27.6851 23.3933 28.4232 23.72 29.3541 23.72C30.285 23.72 31.0164 23.3933 31.5484 22.74C32.0936 22.0867 32.3662 21.1867 32.3662 20.04C32.3662 18.8933 32.0936 17.9933 31.5484 17.34C31.0164 16.6867 30.285 16.36 29.3541 16.36C28.4232 16.36 27.6851 16.6867 27.1398 17.34C26.5946 17.9933 26.3219 18.8933 26.3219 20.04C26.3219 21.1867 26.5946 22.0867 27.1398 22.74Z" fill="white"/>
<path d="M41.3269 14.72C41.6194 14.72 41.8123 14.7267 41.9054 14.74V16.64H41.4067C40.3827 16.64 39.5914 16.8933 39.0328 17.4C38.4743 17.9067 38.195 18.64 38.195 19.6V25.2H36.2002V14.88H38.1152V16.72C38.7669 15.3867 39.8374 14.72 41.3269 14.72Z" fill="white"/>
<path d="M48.3343 14.88V16.52H46.2597V22.72C46.2597 23.0267 46.3461 23.2533 46.519 23.4C46.7052 23.5333 47.0111 23.6 47.4366 23.6H48.3343V25.2C47.8954 25.24 47.4898 25.26 47.1175 25.26C46.1467 25.26 45.4285 25.0733 44.9631 24.7C44.4976 24.3267 44.2649 23.7267 44.2649 22.9V16.52H42.6092V14.88H44.2649V11.92H46.2597V14.88H48.3343Z" fill="white"/>
<path d="M55.0607 14.72C55.3533 14.72 55.5461 14.7267 55.6392 14.74V16.64H55.1405C54.1165 16.64 53.3252 16.8933 52.7667 17.4C52.2081 17.9067 51.9289 18.64 51.9289 19.6V25.2H49.9341V14.88H51.8491V16.72C52.5007 15.3867 53.5713 14.72 55.0607 14.72Z" fill="white"/>
<path d="M65.2781 23.66H65.8367V25.2C65.5441 25.24 65.2183 25.26 64.8592 25.26C64.2209 25.26 63.7421 25.1467 63.4229 24.92C63.117 24.68 62.9309 24.3067 62.8644 23.8C62.1728 24.8933 61.0557 25.44 59.5131 25.44C58.3827 25.44 57.485 25.1733 56.8201 24.64C56.1684 24.0933 55.8426 23.34 55.8426 22.38C55.8426 20.5133 57.1326 19.4467 59.7126 19.18L61.2286 19.02C61.7606 18.9533 62.1462 18.82 62.3856 18.62C62.6383 18.4067 62.7646 18.1067 62.7646 17.72C62.7646 17.2 62.5984 16.8267 62.2659 16.6C61.9468 16.36 61.4082 16.24 60.6501 16.24C59.8256 16.24 59.2338 16.38 58.8747 16.66C58.5157 16.9267 58.3095 17.4067 58.2563 18.1H56.2815C56.4278 15.7933 57.884 14.64 60.6501 14.64C63.3631 14.64 64.7196 15.6533 64.7196 17.68V23.14C64.7196 23.4867 64.9057 23.66 65.2781 23.66ZM59.8123 23.88C60.6634 23.88 61.3683 23.64 61.9268 23.16C62.4854 22.68 62.7646 22 62.7646 21.12V20.04C62.512 20.2533 62.0864 20.3933 61.4879 20.46L60.0517 20.62C59.2804 20.7133 58.7284 20.9 58.396 21.18C58.0635 21.4467 57.8973 21.8267 57.8973 22.32C57.8973 22.8133 58.0569 23.2 58.376 23.48C58.7085 23.7467 59.1873 23.88 59.8123 23.88Z" fill="white"/>
<path d="M69.0918 13.42H67.0571V11.28H69.0918V13.42ZM69.0718 25.2H67.077V14.88H69.0718V25.2Z" fill="white"/>
<path d="M76.1916 14.88V16.52H74.117V22.72C74.117 23.0267 74.2035 23.2533 74.3763 23.4C74.5625 23.5333 74.8684 23.6 75.294 23.6H76.1916V25.2C75.7528 25.24 75.3472 25.26 74.9748 25.26C74.004 25.26 73.2858 25.0733 72.8204 24.7C72.3549 24.3267 72.1222 23.7267 72.1222 22.9V16.52H70.4665V14.88H72.1222V11.92H74.117V14.88H76.1916Z" fill="white"/>
<path d="M81.9436 10.96H87.9879C89.5305 10.96 90.7274 11.3667 91.5785 12.18C92.4297 12.98 92.8552 14.0733 92.8552 15.46C92.8552 16.8333 92.4297 17.9267 91.5785 18.74C90.7274 19.54 89.5305 19.94 87.9879 19.94H84.078V25.2H81.9436V10.96ZM84.078 18.06H87.948C88.839 18.06 89.5172 17.84 89.9827 17.4C90.4481 16.9467 90.6809 16.3 90.6809 15.46C90.6809 14.62 90.4481 13.9733 89.9827 13.52C89.5172 13.0667 88.839 12.84 87.948 12.84H84.078V18.06Z" fill="white"/>
<path d="M99.4966 14.64C100.627 14.64 101.511 14.96 102.15 15.6C102.788 16.2267 103.107 17.12 103.107 18.28V25.2H101.112V18.56C101.112 17.12 100.388 16.4 98.938 16.4C98.2731 16.4 97.6746 16.6533 97.1427 17.16C96.6107 17.68 96.3448 18.42 96.3448 19.38V25.2H94.3499V10.96H96.3448V16.3C97.1294 15.1933 98.18 14.64 99.4966 14.64Z" fill="white"/>
<path d="M113.675 23.96C112.731 24.9467 111.501 25.44 109.984 25.44C108.468 25.44 107.238 24.9467 106.294 23.96C105.35 22.9733 104.878 21.6667 104.878 20.04C104.878 18.4 105.35 17.0867 106.294 16.1C107.225 15.1267 108.455 14.64 109.984 14.64C111.514 14.64 112.744 15.1267 113.675 16.1C114.606 17.0733 115.071 18.3867 115.071 20.04C115.071 21.68 114.606 22.9867 113.675 23.96ZM107.77 22.74C108.315 23.3933 109.054 23.72 109.984 23.72C110.915 23.72 111.647 23.3933 112.179 22.74C112.724 22.0867 112.997 21.1867 112.997 20.04C112.997 18.8933 112.724 17.9933 112.179 17.34C111.647 16.6867 110.915 16.36 109.984 16.36C109.054 16.36 108.315 16.6867 107.77 17.34C107.225 17.9933 106.952 18.8933 106.952 20.04C106.952 21.1867 107.225 22.0867 107.77 22.74Z" fill="white"/>
<path d="M121.153 14.88V16.52H119.078V22.72C119.078 23.0267 119.165 23.2533 119.338 23.4C119.524 23.5333 119.83 23.6 120.255 23.6H121.153V25.2C120.714 25.24 120.308 25.26 119.936 25.26C118.965 25.26 118.247 25.0733 117.782 24.7C117.316 24.3267 117.084 23.7267 117.084 22.9V16.52H115.428V14.88H117.084V11.92H119.078V14.88H121.153Z" fill="white"/>
<path d="M130.876 23.96C129.932 24.9467 128.702 25.44 127.186 25.44C125.67 25.44 124.44 24.9467 123.495 23.96C122.551 22.9733 122.079 21.6667 122.079 20.04C122.079 18.4 122.551 17.0867 123.495 16.1C124.426 15.1267 125.657 14.64 127.186 14.64C128.715 14.64 129.945 15.1267 130.876 16.1C131.807 17.0733 132.273 18.3867 132.273 20.04C132.273 21.68 131.807 22.9867 130.876 23.96ZM124.972 22.74C125.517 23.3933 126.255 23.72 127.186 23.72C128.117 23.72 128.848 23.3933 129.38 22.74C129.925 22.0867 130.198 21.1867 130.198 20.04C130.198 18.8933 129.925 17.9933 129.38 17.34C128.848 16.6867 128.117 16.36 127.186 16.36C126.255 16.36 125.517 16.6867 124.972 17.34C124.426 17.9933 124.154 18.8933 124.154 20.04C124.154 21.1867 124.426 22.0867 124.972 22.74Z" fill="white"/>
<path d="M137.686 25.46C134.827 25.46 133.324 24.28 133.178 21.92H135.173C135.253 22.64 135.485 23.1467 135.871 23.44C136.257 23.7333 136.868 23.88 137.706 23.88C139.222 23.88 139.98 23.4 139.98 22.44C139.98 22.0267 139.821 21.7067 139.502 21.48C139.182 21.2533 138.611 21.0667 137.786 20.92L136.729 20.72C134.548 20.32 133.457 19.2933 133.457 17.64C133.457 16.72 133.81 15.9933 134.515 15.46C135.219 14.9133 136.19 14.64 137.427 14.64C140.26 14.64 141.709 15.7933 141.776 18.1H139.841C139.801 17.4067 139.588 16.92 139.202 16.64C138.817 16.3467 138.225 16.2 137.427 16.2C136.789 16.2 136.297 16.32 135.951 16.56C135.605 16.8 135.432 17.14 135.432 17.58C135.432 17.98 135.585 18.2933 135.891 18.52C136.197 18.7333 136.682 18.9067 137.347 19.04L138.424 19.22C139.688 19.46 140.599 19.82 141.157 20.3C141.716 20.78 141.995 21.4467 141.995 22.3C141.995 23.3 141.616 24.08 140.858 24.64C140.1 25.1867 139.043 25.46 137.686 25.46Z" fill="white"/>
</svg>
