<svg width="114" height="25" viewBox="0 0 114 25" fill="none" xmlns="http://www.w3.org/2000/svg">
<path d="M2.95337 25C1.32227 25 9.1042e-07 23.6832 8.39123e-07 22.0588L0 2.94118C-7.12976e-08 1.31681 1.32227 4.77641e-06 2.95337 4.7054e-06L111.047 0C112.678 -7.10033e-08 114 1.31681 114 2.94118V22.0588C114 23.6832 112.678 25 111.047 25L2.95337 25Z" fill="white" fill-opacity="0.17"/>
<path d="M35.1008 12.8088L36.3855 8.05882H38.0246L35.0712 18.5294H33.2992L31.9702 13.6324C31.7142 12.6814 31.4091 11.4706 31.0547 10C30.7003 11.4706 30.3951 12.6814 30.1391 13.6324L28.8101 18.5294H27.0381L24.0847 8.05882H25.7238L27.0085 12.8088C27.4516 14.5245 27.7764 15.8137 27.9832 16.6765C28.5541 14.3431 28.8741 13.0441 28.943 12.7794L30.213 8.05882H31.8964L33.1663 12.7794C33.2352 13.0441 33.5552 14.3431 34.1262 16.6765C34.3329 15.8137 34.6578 14.5245 35.1008 12.8088Z" fill="white"/>
<path d="M44.9553 14.7941V15.2206H39.211C39.2799 15.9657 39.5014 16.5294 39.8755 16.9118C40.2496 17.2843 40.7566 17.4706 41.3965 17.4706C42.3613 17.4706 42.9913 17.049 43.2867 16.2059H44.7781C44.5714 16.9804 44.1678 17.5931 43.5672 18.0441C42.9766 18.4853 42.2432 18.7059 41.367 18.7059C40.2742 18.7059 39.3932 18.3431 38.7237 17.6176C38.0543 16.8922 37.7196 15.9314 37.7196 14.7353C37.7196 13.5392 38.0543 12.5784 38.7237 11.8529C39.3932 11.1275 40.2644 10.7647 41.3375 10.7647C42.4597 10.7647 43.3458 11.1422 43.9955 11.8971C44.6354 12.652 44.9553 13.6176 44.9553 14.7941ZM41.3375 12C40.7566 12 40.2792 12.1765 39.9051 12.5294C39.5408 12.8824 39.3144 13.3922 39.2258 14.0588H43.4343C43.3654 13.4412 43.1439 12.9461 42.7698 12.5735C42.4056 12.1912 41.9281 12 41.3375 12Z" fill="white"/>
<path d="M51.8616 11.9706V8.05882H53.3383V18.5294H51.9207V17.4118C51.3497 18.2745 50.508 18.7059 49.3955 18.7059C48.3323 18.7059 47.4857 18.348 46.8556 17.6324C46.2256 16.9167 45.9106 15.951 45.9106 14.7353C45.9106 13.5196 46.2256 12.5539 46.8556 11.8382C47.4857 11.1226 48.3323 10.7647 49.3955 10.7647C50.4686 10.7647 51.2906 11.1667 51.8616 11.9706ZM47.4463 14.7941C47.4463 15.6373 47.6481 16.2892 48.0518 16.75C48.4554 17.2108 48.9968 17.4412 49.6761 17.4412C50.3751 17.4412 50.9214 17.201 51.3152 16.7206C51.709 16.2598 51.9059 15.598 51.9059 14.7353C51.9059 13.8824 51.709 13.2157 51.3152 12.7353C50.9214 12.2647 50.3751 12.0294 49.6761 12.0294C48.9968 12.0294 48.4554 12.2745 48.0518 12.7647C47.6481 13.2549 47.4463 13.9314 47.4463 14.7941Z" fill="white"/>
<path d="M60.6006 11.9706V8.05882H62.0773V18.5294H60.6596V17.4118C60.0887 18.2745 59.2469 18.7059 58.1345 18.7059C57.0713 18.7059 56.2247 18.348 55.5946 17.6324C54.9646 16.9167 54.6495 15.951 54.6495 14.7353C54.6495 13.5196 54.9646 12.5539 55.5946 11.8382C56.2247 11.1226 57.0713 10.7647 58.1345 10.7647C59.2076 10.7647 60.0296 11.1667 60.6006 11.9706ZM56.1853 14.7941C56.1853 15.6373 56.3871 16.2892 56.7907 16.75C57.1944 17.2108 57.7358 17.4412 58.4151 17.4412C59.114 17.4412 59.6604 17.201 60.0542 16.7206C60.448 16.2598 60.6449 15.598 60.6449 14.7353C60.6449 13.8824 60.448 13.2157 60.0542 12.7353C59.6604 12.2647 59.114 12.0294 58.4151 12.0294C57.7358 12.0294 57.1944 12.2745 56.7907 12.7647C56.3871 13.2549 56.1853 13.9314 56.1853 14.7941Z" fill="white"/>
<path d="M65.2344 9.86765H63.7281V8.29412H65.2344V9.86765ZM65.2196 18.5294H63.7429V10.9412H65.2196V18.5294Z" fill="white"/>
<path d="M70.6821 10.7647C71.5188 10.7647 72.1735 11 72.646 11.4706C73.1186 11.9314 73.3549 12.5882 73.3549 13.4412V18.5294H71.8782V13.6471C71.8782 12.5882 71.3416 12.0588 70.2686 12.0588C69.7764 12.0588 69.3333 12.2451 68.9396 12.6176C68.5458 13 68.3489 13.5441 68.3489 14.25V18.5294H66.8722V10.9412H68.2898V12.0735C68.8707 11.201 69.6681 10.7647 70.6821 10.7647Z" fill="white"/>
<path d="M80.6756 12.0147V10.9412H82.0932V18.25C82.0932 19.2892 81.7782 20.1029 81.1482 20.6912C80.5181 21.2892 79.6223 21.5882 78.4606 21.5882C77.4663 21.5882 76.6738 21.3627 76.0831 20.9118C75.5023 20.4608 75.1725 19.8431 75.0938 19.0588H76.5704C76.6886 19.951 77.3236 20.3971 78.4754 20.3971C79.9028 20.3971 80.6166 19.6912 80.6166 18.2794V17.4412C80.0357 18.2255 79.2186 18.6176 78.1653 18.6176C77.1021 18.6176 76.2554 18.2598 75.6254 17.5441C74.9855 16.8186 74.6655 15.8676 74.6655 14.6912C74.6655 13.5147 74.9855 12.5637 75.6254 11.8382C76.2554 11.1226 77.0971 10.7647 78.1505 10.7647C79.2629 10.7647 80.1046 11.1814 80.6756 12.0147ZM78.4311 17.3529C79.1202 17.3529 79.6616 17.1176 80.0554 16.6471C80.459 16.1667 80.6609 15.5147 80.6609 14.6912C80.6609 13.8676 80.459 13.2206 80.0554 12.75C79.6616 12.2696 79.1202 12.0294 78.4311 12.0294C77.7518 12.0294 77.2103 12.2696 76.8067 12.75C76.4031 13.2304 76.2013 13.8775 76.2013 14.6912C76.2013 15.5147 76.4031 16.1667 76.8067 16.6471C77.2103 17.1176 77.7518 17.3529 78.4311 17.3529Z" fill="white"/>
<path d="M86.5794 18.7206C84.4628 18.7206 83.3503 17.8529 83.2421 16.1176H84.7187C84.7778 16.6471 84.9501 17.0196 85.2356 17.2353C85.5211 17.451 85.9739 17.5588 86.5941 17.5588C87.7164 17.5588 88.2776 17.2059 88.2776 16.5C88.2776 16.1961 88.1594 15.9608 87.9231 15.7941C87.6869 15.6275 87.2636 15.4902 86.6532 15.3824L85.8706 15.2353C84.256 14.9412 83.4488 14.1863 83.4488 12.9706C83.4488 12.2941 83.7097 11.7598 84.2314 11.3676C84.7532 10.9657 85.4719 10.7647 86.3874 10.7647C88.4843 10.7647 89.5573 11.6127 89.6066 13.3088H88.1742C88.1446 12.799 87.9871 12.4412 87.7016 12.2353C87.4161 12.0196 86.9781 11.9118 86.3874 11.9118C85.9149 11.9118 85.5506 12 85.2946 12.1765C85.0387 12.3529 84.9107 12.6029 84.9107 12.9265C84.9107 13.2206 85.0239 13.451 85.2503 13.6176C85.4768 13.7745 85.8361 13.902 86.3283 14L87.1257 14.1324C88.061 14.3088 88.7353 14.5735 89.1488 14.9265C89.5623 15.2794 89.769 15.7696 89.769 16.3971C89.769 17.1324 89.4884 17.7059 88.9273 18.1176C88.3661 18.5196 87.5835 18.7206 86.5794 18.7206Z" fill="white"/>
</svg>
