<svg width="154" height="34" viewBox="0 0 154 34" fill="none" xmlns="http://www.w3.org/2000/svg">
<path d="M3.98964 34C1.78622 34 1.22987e-06 32.2091 1.13355e-06 30L0 4.00001C-9.63144e-08 1.79087 1.78622 6.49591e-06 3.98964 6.39935e-06L150.01 0C152.214 -9.65645e-08 154 1.79086 154 4V30C154 32.2091 152.214 34 150.01 34L3.98964 34Z" fill="white" fill-opacity="0.17"/>
<path d="M25.1347 15.28V10.96H27.1894V25.2H24.7358L20.3671 18.3C19.0904 16.3 18.1661 14.7733 17.5943 13.72C17.6475 15.3067 17.6741 17.6933 17.6741 20.88V25.2H15.5995V10.96H18.0531L22.4417 17.86C23.6253 19.74 24.5496 21.2733 25.2145 22.46C25.1613 20.86 25.1347 18.4667 25.1347 15.28Z" fill="white"/>
<path d="M38.3044 23.66H38.863V25.2C38.5704 25.24 38.2446 25.26 37.8855 25.26C37.2472 25.26 36.7684 25.1467 36.4492 24.92C36.1434 24.68 35.9572 24.3067 35.8907 23.8C35.1991 24.8933 34.082 25.44 32.5394 25.44C31.409 25.44 30.5113 25.1733 29.8464 24.64C29.1947 24.0933 28.8689 23.34 28.8689 22.38C28.8689 20.5133 30.1589 19.4467 32.7389 19.18L34.2549 19.02C34.7869 18.9533 35.1726 18.82 35.4119 18.62C35.6646 18.4067 35.7909 18.1067 35.7909 17.72C35.7909 17.2 35.6247 16.8267 35.2922 16.6C34.9731 16.36 34.4345 16.24 33.6764 16.24C32.8519 16.24 32.2601 16.38 31.901 16.66C31.542 16.9267 31.3358 17.4067 31.2827 18.1H29.3078C29.4541 15.7933 30.9103 14.64 33.6764 14.64C36.3894 14.64 37.7459 15.6533 37.7459 17.68V23.14C37.7459 23.4867 37.932 23.66 38.3044 23.66ZM32.8386 23.88C33.6897 23.88 34.3946 23.64 34.9531 23.16C35.5117 22.68 35.7909 22 35.7909 21.12V20.04C35.5383 20.2533 35.1127 20.3933 34.5143 20.46L33.078 20.62C32.3067 20.7133 31.7548 20.9 31.4223 21.18C31.0898 21.4467 30.9236 21.8267 30.9236 22.32C30.9236 22.8133 31.0832 23.2 31.4023 23.48C31.7348 23.7467 32.2136 23.88 32.8386 23.88Z" fill="white"/>
<path d="M44.7179 14.88V16.52H42.6433V22.72C42.6433 23.0267 42.7297 23.2533 42.9026 23.4C43.0888 23.5333 43.3947 23.6 43.8202 23.6H44.7179V25.2C44.2791 25.24 43.8734 25.26 43.5011 25.26C42.5303 25.26 41.8121 25.0733 41.3467 24.7C40.8812 24.3267 40.6485 23.7267 40.6485 22.9V16.52H38.9928V14.88H40.6485V11.92H42.6433V14.88H44.7179Z" fill="white"/>
<path d="M53.0801 20.7V14.88H55.0749V25.2H53.1599V23.66C52.3753 24.8467 51.2981 25.44 49.9283 25.44C48.7979 25.44 47.9135 25.12 47.2752 24.48C46.6368 23.84 46.3177 22.9467 46.3177 21.8V14.88H48.3125V21.52C48.3125 22.96 49.0373 23.68 50.4868 23.68C51.2183 23.68 51.83 23.42 52.3221 22.9C52.8274 22.3667 53.0801 21.6333 53.0801 20.7Z" fill="white"/>
<path d="M62.4509 14.72C62.7435 14.72 62.9363 14.7267 63.0294 14.74V16.64H62.5307C61.5067 16.64 60.7154 16.8933 60.1569 17.4C59.5983 17.9067 59.319 18.64 59.319 19.6V25.2H57.3242V14.88H59.2393V16.72C59.8909 15.3867 60.9615 14.72 62.4509 14.72Z" fill="white"/>
<path d="M73.224 20.12V20.7H65.4642C65.5573 21.7133 65.8565 22.48 66.3619 23C66.8672 23.5067 67.5521 23.76 68.4165 23.76C69.7198 23.76 70.5709 23.1867 70.9699 22.04H72.9846C72.7054 23.0933 72.1601 23.9267 71.3489 24.54C70.551 25.14 69.5602 25.44 68.3766 25.44C66.9004 25.44 65.7102 24.9467 64.8059 23.96C63.9016 22.9733 63.4494 21.6667 63.4494 20.04C63.4494 18.4133 63.9016 17.1067 64.8059 16.12C65.7102 15.1333 66.8872 14.64 68.3367 14.64C69.8528 14.64 71.0497 15.1533 71.9274 16.18C72.7918 17.2067 73.224 18.52 73.224 20.12ZM68.3367 16.32C67.5521 16.32 66.9071 16.56 66.4017 17.04C65.9097 17.52 65.6038 18.2133 65.4841 19.12H71.1694C71.0763 18.28 70.777 17.6067 70.2717 17.1C69.7796 16.58 69.1346 16.32 68.3367 16.32Z" fill="white"/>
<path d="M79.1454 10.96H85.1897C86.7323 10.96 87.9292 11.3667 88.7803 12.18C89.6315 12.98 90.057 14.0733 90.057 15.46C90.057 16.8333 89.6315 17.9267 88.7803 18.74C87.9292 19.54 86.7323 19.94 85.1897 19.94H81.2798V25.2H79.1454V10.96ZM81.2798 18.06H85.1498C86.0408 18.06 86.719 17.84 87.1845 17.4C87.6499 16.9467 87.8827 16.3 87.8827 15.46C87.8827 14.62 87.6499 13.9733 87.1845 13.52C86.719 13.0667 86.0408 12.84 85.1498 12.84H81.2798V18.06Z" fill="white"/>
<path d="M96.6984 14.64C97.8288 14.64 98.7131 14.96 99.3515 15.6C99.9898 16.2267 100.309 17.12 100.309 18.28V25.2H98.3142V18.56C98.3142 17.12 97.5894 16.4 96.1398 16.4C95.4749 16.4 94.8764 16.6533 94.3445 17.16C93.8125 17.68 93.5466 18.42 93.5466 19.38V25.2H91.5517V10.96H93.5466V16.3C94.3312 15.1933 95.3818 14.64 96.6984 14.64Z" fill="white"/>
<path d="M110.877 23.96C109.932 24.9467 108.702 25.44 107.186 25.44C105.67 25.44 104.44 24.9467 103.496 23.96C102.552 22.9733 102.08 21.6667 102.08 20.04C102.08 18.4 102.552 17.0867 103.496 16.1C104.427 15.1267 105.657 14.64 107.186 14.64C108.716 14.64 109.946 15.1267 110.877 16.1C111.808 17.0733 112.273 18.3867 112.273 20.04C112.273 21.68 111.808 22.9867 110.877 23.96ZM104.972 22.74C105.517 23.3933 106.255 23.72 107.186 23.72C108.117 23.72 108.849 23.3933 109.381 22.74C109.926 22.0867 110.198 21.1867 110.198 20.04C110.198 18.8933 109.926 17.9933 109.381 17.34C108.849 16.6867 108.117 16.36 107.186 16.36C106.255 16.36 105.517 16.6867 104.972 17.34C104.427 17.9933 104.154 18.8933 104.154 20.04C104.154 21.1867 104.427 22.0867 104.972 22.74Z" fill="white"/>
<path d="M118.355 14.88V16.52H116.28V22.72C116.28 23.0267 116.367 23.2533 116.539 23.4C116.726 23.5333 117.032 23.6 117.457 23.6H118.355V25.2C117.916 25.24 117.51 25.26 117.138 25.26C116.167 25.26 115.449 25.0733 114.984 24.7C114.518 24.3267 114.285 23.7267 114.285 22.9V16.52H112.63V14.88H114.285V11.92H116.28V14.88H118.355Z" fill="white"/>
<path d="M128.078 23.96C127.134 24.9467 125.904 25.44 124.388 25.44C122.872 25.44 121.641 24.9467 120.697 23.96C119.753 22.9733 119.281 21.6667 119.281 20.04C119.281 18.4 119.753 17.0867 120.697 16.1C121.628 15.1267 122.858 14.64 124.388 14.64C125.917 14.64 127.147 15.1267 128.078 16.1C129.009 17.0733 129.474 18.3867 129.474 20.04C129.474 21.68 129.009 22.9867 128.078 23.96ZM122.173 22.74C122.719 23.3933 123.457 23.72 124.388 23.72C125.319 23.72 126.05 23.3933 126.582 22.74C127.127 22.0867 127.4 21.1867 127.4 20.04C127.4 18.8933 127.127 17.9933 126.582 17.34C126.05 16.6867 125.319 16.36 124.388 16.36C123.457 16.36 122.719 16.6867 122.173 17.34C121.628 17.9933 121.356 18.8933 121.356 20.04C121.356 21.1867 121.628 22.0867 122.173 22.74Z" fill="white"/>
<path d="M134.888 25.46C132.029 25.46 130.526 24.28 130.38 21.92H132.375C132.454 22.64 132.687 23.1467 133.073 23.44C133.458 23.7333 134.07 23.88 134.908 23.88C136.424 23.88 137.182 23.4 137.182 22.44C137.182 22.0267 137.023 21.7067 136.703 21.48C136.384 21.2533 135.812 21.0667 134.988 20.92L133.931 20.72C131.75 20.32 130.659 19.2933 130.659 17.64C130.659 16.72 131.011 15.9933 131.716 15.46C132.421 14.9133 133.392 14.64 134.629 14.64C137.461 14.64 138.911 15.7933 138.977 18.1H137.042C137.003 17.4067 136.79 16.92 136.404 16.64C136.018 16.3467 135.427 16.2 134.629 16.2C133.99 16.2 133.498 16.32 133.153 16.56C132.807 16.8 132.634 17.14 132.634 17.58C132.634 17.98 132.787 18.2933 133.093 18.52C133.399 18.7333 133.884 18.9067 134.549 19.04L135.626 19.22C136.89 19.46 137.801 19.82 138.359 20.3C138.918 20.78 139.197 21.4467 139.197 22.3C139.197 23.3 138.818 24.08 138.06 24.64C137.302 25.1867 136.245 25.46 134.888 25.46Z" fill="white"/>
</svg>
