<svg width="154" height="34" viewBox="0 0 154 34" fill="none" xmlns="http://www.w3.org/2000/svg">
<path d="M3.98964 34C1.78622 34 1.22987e-06 32.2091 1.13355e-06 30L0 4.00001C-9.63144e-08 1.79087 1.78622 6.49591e-06 3.98964 6.39935e-06L150.01 0C152.214 -9.65645e-08 154 1.79086 154 4V30C154 32.2091 152.214 34 150.01 34L3.98964 34Z" fill="white" fill-opacity="0.17"/>
<path d="M40.1756 25.2H37.9215L36.5251 21.5H30.1417L28.7653 25.2H26.551L32.0966 10.96H34.5503L40.1756 25.2ZM31.1192 18.86L30.8199 19.64H35.8269L35.5277 18.86C34.8229 17.1 34.0848 15.1533 33.3135 13.02C32.3959 15.4733 31.6644 17.42 31.1192 18.86Z" fill="white"/>
<path d="M47.8281 20.7V14.88H49.8229V25.2H47.9079V23.66C47.1233 24.8467 46.0461 25.44 44.6763 25.44C43.5459 25.44 42.6615 25.12 42.0232 24.48C41.3848 23.84 41.0657 22.9467 41.0657 21.8V14.88H43.0605V21.52C43.0605 22.96 43.7853 23.68 45.2348 23.68C45.9663 23.68 46.578 23.42 47.0701 22.9C47.5754 22.3667 47.8281 21.6333 47.8281 20.7Z" fill="white"/>
<path d="M56.9596 14.88V16.52H54.8849V22.72C54.8849 23.0267 54.9714 23.2533 55.1443 23.4C55.3304 23.5333 55.6363 23.6 56.0619 23.6H56.9596V25.2C56.5207 25.24 56.1151 25.26 55.7427 25.26C54.7719 25.26 54.0538 25.0733 53.5883 24.7C53.1229 24.3267 52.8901 23.7267 52.8901 22.9V16.52H51.2344V14.88H52.8901V11.92H54.8849V14.88H56.9596Z" fill="white"/>
<path d="M66.6829 23.96C65.7387 24.9467 64.5085 25.44 62.9925 25.44C61.4764 25.44 60.2463 24.9467 59.3021 23.96C58.3578 22.9733 57.8857 21.6667 57.8857 20.04C57.8857 18.4 58.3578 17.0867 59.3021 16.1C60.233 15.1267 61.4631 14.64 62.9925 14.64C64.5218 14.64 65.752 15.1267 66.6829 16.1C67.6138 17.0733 68.0793 18.3867 68.0793 20.04C68.0793 21.68 67.6138 22.9867 66.6829 23.96ZM60.7782 22.74C61.3235 23.3933 62.0616 23.72 62.9925 23.72C63.9234 23.72 64.6548 23.3933 65.1868 22.74C65.732 22.0867 66.0047 21.1867 66.0047 20.04C66.0047 18.8933 65.732 17.9933 65.1868 17.34C64.6548 16.6867 63.9234 16.36 62.9925 16.36C62.0616 16.36 61.3235 16.6867 60.7782 17.34C60.233 17.9933 59.9604 18.8933 59.9604 20.04C59.9604 21.1867 60.233 22.0867 60.7782 22.74Z" fill="white"/>
<path d="M81.0894 14.64C82.2065 14.64 83.0775 14.9733 83.7026 15.64C84.3276 16.2933 84.6402 17.1733 84.6402 18.28V25.2H82.6254V18.54C82.6254 17.1133 81.9671 16.4 80.6505 16.4C79.9457 16.4 79.3672 16.6733 78.915 17.22C78.4629 17.7533 78.2368 18.5267 78.2368 19.54V25.2H76.242V18.54C76.242 17.1133 75.577 16.4 74.2472 16.4C73.5423 16.4 72.9638 16.6733 72.5117 17.22C72.0595 17.7667 71.8334 18.54 71.8334 19.54V25.2H69.8386V14.88H71.7536V16.42C72.4585 15.2333 73.4492 14.64 74.7259 14.64C76.2819 14.64 77.3391 15.2867 77.8977 16.58C78.6291 15.2867 79.693 14.64 81.0894 14.64Z" fill="white"/>
<path d="M95.1831 23.96C94.2389 24.9467 93.0087 25.44 91.4927 25.44C89.9766 25.44 88.7465 24.9467 87.8022 23.96C86.858 22.9733 86.3859 21.6667 86.3859 20.04C86.3859 18.4 86.858 17.0867 87.8022 16.1C88.7332 15.1267 89.9633 14.64 91.4927 14.64C93.022 14.64 94.2522 15.1267 95.1831 16.1C96.114 17.0733 96.5795 18.3867 96.5795 20.04C96.5795 21.68 96.114 22.9867 95.1831 23.96ZM89.2784 22.74C89.8237 23.3933 90.5617 23.72 91.4927 23.72C92.4236 23.72 93.155 23.3933 93.687 22.74C94.2322 22.0867 94.5048 21.1867 94.5048 20.04C94.5048 18.8933 94.2322 17.9933 93.687 17.34C93.155 16.6867 92.4236 16.36 91.4927 16.36C90.5617 16.36 89.8237 16.6867 89.2784 17.34C88.7332 17.9933 88.4605 18.8933 88.4605 20.04C88.4605 21.1867 88.7332 22.0867 89.2784 22.74Z" fill="white"/>
<path d="M102.661 14.88V16.52H100.587V22.72C100.587 23.0267 100.673 23.2533 100.846 23.4C101.032 23.5333 101.338 23.6 101.763 23.6H102.661V25.2C102.222 25.24 101.817 25.26 101.444 25.26C100.474 25.26 99.7554 25.0733 99.2899 24.7C98.8245 24.3267 98.5917 23.7267 98.5917 22.9V16.52H96.936V14.88H98.5917V11.92H100.587V14.88H102.661Z" fill="white"/>
<path d="M106.276 13.42H104.241V11.28H106.276V13.42ZM106.256 25.2H104.261V14.88H106.256V25.2Z" fill="white"/>
<path d="M113.956 18.66L115.333 14.88H117.447L113.498 25.2H111.283L107.354 14.88H109.508L110.904 18.66C111.848 21.4733 112.354 23.0067 112.42 23.26C112.46 23.1267 112.547 22.86 112.68 22.46C112.813 22.06 112.999 21.5133 113.238 20.82C113.478 20.1133 113.717 19.3933 113.956 18.66Z" fill="white"/>
<path d="M127.369 20.12V20.7H119.609C119.702 21.7133 120.001 22.48 120.506 23C121.012 23.5067 121.697 23.76 122.561 23.76C123.864 23.76 124.715 23.1867 125.114 22.04H127.129C126.85 23.0933 126.305 23.9267 125.493 24.54C124.695 25.14 123.705 25.44 122.521 25.44C121.045 25.44 119.855 24.9467 118.95 23.96C118.046 22.9733 117.594 21.6667 117.594 20.04C117.594 18.4133 118.046 17.1067 118.95 16.12C119.855 15.1333 121.032 14.64 122.481 14.64C123.997 14.64 125.194 15.1533 126.072 16.18C126.936 17.2067 127.369 18.52 127.369 20.12ZM122.481 16.32C121.697 16.32 121.052 16.56 120.546 17.04C120.054 17.52 119.748 18.2133 119.629 19.12H125.314C125.221 18.28 124.922 17.6067 124.416 17.1C123.924 16.58 123.279 16.32 122.481 16.32Z" fill="white"/>
</svg>
